<svg width="256" height="256" viewBox="0 0 256 256" fill="none" xmlns="http://www.w3.org/2000/svg">
<g clip-path="url(#clip0_13_11)">
<rect width="256" height="256" rx="46" fill="#F5F5F5"/>
<path d="M162.537 227.084H62.0008C58.2248 227.084 55.4714 226.219 53.7408 224.488C52.0101 222.757 51.1448 220.004 51.1448 216.228V188.144C51.1448 186.099 51.3808 184.368 51.8528 182.952C52.4821 181.536 53.3474 180.356 54.4488 179.412L83.0048 155.34V102.712H62.0008C58.2248 102.712 55.4714 101.847 53.7408 100.116C52.0101 98.3853 51.1448 95.632 51.1448 91.856V63.3C51.1448 61.2547 51.3808 59.524 51.8528 58.108C52.4821 56.692 53.3474 55.512 54.4488 54.568L84.8928 28.844C85.6794 28.2147 86.7021 27.7427 87.9608 27.428C89.3768 26.956 90.8714 26.72 92.4448 26.72H192.981C196.757 26.72 199.51 27.5853 201.241 29.316C202.971 31.0467 203.837 33.8 203.837 37.576V66.132C203.837 68.1773 203.522 69.908 202.893 71.324C202.421 72.74 201.634 73.92 200.533 74.864L172.449 98.464V151.564H192.981C196.757 151.564 199.51 152.429 201.241 154.16C202.971 155.891 203.837 158.644 203.837 162.42V190.504C203.837 192.549 203.522 194.28 202.893 195.696C202.421 197.112 201.634 198.292 200.533 199.236L169.853 224.724C169.223 225.353 168.201 225.904 166.785 226.376C165.526 226.848 164.11 227.084 162.537 227.084ZM92.4448 199H192.981C195.97 199 198.094 198.371 199.353 197.112C200.769 195.696 201.477 193.493 201.477 190.504V162.42C201.477 159.431 200.769 157.307 199.353 156.048C198.094 154.632 195.97 153.924 192.981 153.924H170.089V74.628H192.981C195.97 74.628 198.094 73.9987 199.353 72.74C200.769 71.324 201.477 69.1213 201.477 66.132V37.576C201.477 34.5867 200.769 32.4627 199.353 31.204C198.094 29.788 195.97 29.08 192.981 29.08H92.4448C89.4554 29.08 87.2528 29.788 85.8368 31.204C84.5781 32.4627 83.9488 34.5867 83.9488 37.576V66.132C83.9488 69.1213 84.5781 71.324 85.8368 72.74C87.2528 73.9987 89.4554 74.628 92.4448 74.628H115.809V153.924H92.4448C89.4554 153.924 87.2528 154.632 85.8368 156.048C84.5781 157.307 83.9488 159.431 83.9488 162.42V190.504C83.9488 193.493 84.5781 195.696 85.8368 197.112C87.2528 198.371 89.4554 199 92.4448 199ZM180.237 177.76H105.189V175.4H141.769V52.68H105.189V50.32H180.237V52.68H144.129V175.4H180.237V177.76Z" fill="black"/>
</g>
<defs>
<clipPath id="clip0_13_11">
<rect width="256" height="256" rx="46" fill="white"/>
</clipPath>
</defs>
</svg>
